<svg fill="none" height="16" width="16" xmlns="http://www.w3.org/2000/svg"><clipPath id="a"><path d="M2 4h12.268v8H2z"/></clipPath><rect fill="#05f" height="16" rx="3" width="16"/><g clip-path="url(#a)" fill="#fff"><path d="M11.293 6.83a.275.275 0 100-.549.275.275 0 000 .549z"/><path clip-rule="evenodd" d="M12.864 8.056a1.42 1.42 0 00.533-.265.487.487 0 01.59-.018l.281.202c-.47.658-1.142.839-1.549.885l-.436 2.438a.768.768 0 01-.62-.892l.28-1.575-2.487-.234c-1.124-.128-1.82-.508-2.082-2.074-.074-.447.006-.87.21-1.23l-2.182.375c-.609.12-1.09.535-1.311 1.123-.146.46-.163.766-.06 1.415.067.484.143 1.033.023 1.773l-.227 1.253h1.544l.2-1.127 2.69-.464.311 1.59h1.545l-.363-1.847a.79.79 0 01.914.63l.237 1.208a.65.65 0 01-.639.777H7.94l-.288-1.473-1.42.246-.107.595A.766.766 0 015.37 12H2.91l.398-2.225C2.9 10.4 2.25 10.35 2 9.949c.926-.414.996-1.064 1.091-1.962.063-.649.124-.968.276-1.453A2.51 2.51 0 015.263 4.91l5.29-.898c.775-.074 1.46.176 1.929.706.53.596.744 1.495.56 2.347zm-.576-1.147l-.209 1.163-2.544-.24c-.824-.094-1.207-.258-1.404-1.436-.126-.751.458-1.234 1.094-1.381l1.414-.239c.525-.047.962.11 1.268.452.364.412.515 1.072.38 1.68z" fill-rule="evenodd"/></g></svg>